# xmcd
#
# Track frame offsets: 
#        150
#        10158
#        15182
#        33659
#        47294
#        53337
#        58039
#        65104
#        68931
#        102679
#        107454
#        112162
#        126896
#        130733
#        136492
#        144626
#        147024
#        154768
#        160933
#        165886
#        169394
#        181777
#
# Disc length: 2653 seconds
#
# Revision: 0
# Processed by: cddbd v1.5.2PL0 Copyright (c) Steve Scherf et al.
# Submitted via: ExactAudioCopy v1.0b1
#
DISCID=2c0a5b16
DTITLE=Meek Mill - We Run The Streets-Edition 3
DYEAR=2011
DGENRE=Hip-Hop
TTITLE0=I'm Not A Star
TTITLE1=Work
TTITLE2=I'm Boss
TTITLE3=Killin Em
TTITLE4=Just Like U
TTITLE5=HNHH Cyper
TTITLE6=Talkin Bout
TTITLE7=Dance Wit Me
TTITLE8=Power 99 Freestyle
TTITLE9=Make Em Say (Remix)
TTITLE10=Get Paper
TTITLE11=Freestyle (Feat. Mel Luv)
TTITLE12=360
TTITLE13=One In Da Front
TTITLE14=HipHop Flash
TTITLE15=Get Down On The Grind
TTITLE16=Pandemonium
TTITLE17=Hustle Hard
TTITLE18=Gimmie Money
TTITLE19=Philly Shit
TTITLE20=Perfectionist
TTITLE21=Believe Me (Feat. Dave Patten)
EXTD=
EXTT0=
EXTT1=
EXTT2=
EXTT3=
EXTT4=
EXTT5=
EXTT6=
EXTT7=
EXTT8=
EXTT9=
EXTT10=
EXTT11=
EXTT12=
EXTT13=
EXTT14=
EXTT15=
EXTT16=
EXTT17=
EXTT18=
EXTT19=
EXTT20=
EXTT21=
PLAYORDER=
